<mxfile host="Electron" agent="Mozilla/5.0 (Windows NT 10.0; Win64; x64) AppleWebKit/537.36 (KHTML, like Gecko) draw.io/24.7.17 Chrome/128.0.6613.36 Electron/32.0.1 Safari/537.36" version="24.7.17">
  <diagram name="overview" id="NRt8IHjdVuMFWShGSi-k">
    <mxGraphModel dx="1179" dy="683" grid="1" gridSize="10" guides="1" tooltips="1" connect="1" arrows="1" fold="1" page="1" pageScale="1" pageWidth="827" pageHeight="1169" math="0" shadow="0">
      <root>
        <mxCell id="0" />
        <mxCell id="1" parent="0" />
        <mxCell id="k31ojTV0Nv7G4YqroZqt-29" value="" style="verticalLabelPosition=bottom;verticalAlign=top;html=1;shape=mxgraph.basic.rect;fillColor2=none;strokeWidth=1;size=20;indent=5;labelBackgroundColor=none;fontColor=none;noLabel=1;strokeColor=none;fillColor=#E6E7F5;" vertex="1" parent="1">
          <mxGeometry x="80" y="40" width="480" height="200" as="geometry" />
        </mxCell>
        <mxCell id="k31ojTV0Nv7G4YqroZqt-28" value="" style="verticalLabelPosition=bottom;verticalAlign=top;html=1;shape=mxgraph.basic.rect;fillColor2=none;strokeWidth=1;size=20;indent=5;labelBackgroundColor=none;fontColor=none;noLabel=1;strokeColor=none;fillColor=#FEF7F5;" vertex="1" parent="1">
          <mxGeometry x="80" y="281" width="480" height="200" as="geometry" />
        </mxCell>
        <mxCell id="k31ojTV0Nv7G4YqroZqt-8" value="User" style="swimlane;fontStyle=1;align=center;verticalAlign=top;childLayout=stackLayout;horizontal=1;startSize=26;horizontalStack=0;resizeParent=1;resizeParentMax=0;resizeLast=0;collapsible=1;marginBottom=0;whiteSpace=wrap;html=1;fillColor=none;" vertex="1" parent="1">
          <mxGeometry x="120" y="61" width="160" height="158" as="geometry" />
        </mxCell>
        <mxCell id="k31ojTV0Nv7G4YqroZqt-9" value="&lt;div&gt;+ username : String&lt;/div&gt;+ role : String&lt;div&gt;+ lastName : String&lt;/div&gt;&lt;div&gt;+ firstName : String&lt;/div&gt;" style="text;strokeColor=none;fillColor=none;align=left;verticalAlign=top;spacingLeft=4;spacingRight=4;overflow=hidden;rotatable=0;points=[[0,0.5],[1,0.5]];portConstraint=eastwest;whiteSpace=wrap;html=1;" vertex="1" parent="k31ojTV0Nv7G4YqroZqt-8">
          <mxGeometry y="26" width="160" height="124" as="geometry" />
        </mxCell>
        <mxCell id="k31ojTV0Nv7G4YqroZqt-10" value="" style="line;strokeWidth=1;fillColor=none;align=left;verticalAlign=middle;spacingTop=-1;spacingLeft=3;spacingRight=3;rotatable=0;labelPosition=right;points=[];portConstraint=eastwest;strokeColor=inherit;" vertex="1" parent="k31ojTV0Nv7G4YqroZqt-8">
          <mxGeometry y="150" width="160" height="8" as="geometry" />
        </mxCell>
        <mxCell id="k31ojTV0Nv7G4YqroZqt-11" value="Library" style="swimlane;fontStyle=1;align=center;verticalAlign=top;childLayout=stackLayout;horizontal=1;startSize=26;horizontalStack=0;resizeParent=1;resizeParentMax=0;resizeLast=0;collapsible=1;marginBottom=0;whiteSpace=wrap;html=1;fillColor=none;" vertex="1" parent="1">
          <mxGeometry x="360" y="61" width="160" height="158" as="geometry" />
        </mxCell>
        <mxCell id="k31ojTV0Nv7G4YqroZqt-12" value="&lt;div&gt;+ title : String&lt;/div&gt;+ date : Date&lt;div&gt;&lt;br&gt;&lt;/div&gt;" style="text;strokeColor=none;fillColor=none;align=left;verticalAlign=top;spacingLeft=4;spacingRight=4;overflow=hidden;rotatable=0;points=[[0,0.5],[1,0.5]];portConstraint=eastwest;whiteSpace=wrap;html=1;" vertex="1" parent="k31ojTV0Nv7G4YqroZqt-11">
          <mxGeometry y="26" width="160" height="124" as="geometry" />
        </mxCell>
        <mxCell id="k31ojTV0Nv7G4YqroZqt-13" value="" style="line;strokeWidth=1;fillColor=none;align=left;verticalAlign=middle;spacingTop=-1;spacingLeft=3;spacingRight=3;rotatable=0;labelPosition=right;points=[];portConstraint=eastwest;strokeColor=inherit;" vertex="1" parent="k31ojTV0Nv7G4YqroZqt-11">
          <mxGeometry y="150" width="160" height="8" as="geometry" />
        </mxCell>
        <mxCell id="k31ojTV0Nv7G4YqroZqt-14" value="Collection" style="swimlane;fontStyle=1;align=center;verticalAlign=top;childLayout=stackLayout;horizontal=1;startSize=26;horizontalStack=0;resizeParent=1;resizeParentMax=0;resizeLast=0;collapsible=1;marginBottom=0;whiteSpace=wrap;html=1;fillColor=none;" vertex="1" parent="1">
          <mxGeometry x="120" y="301" width="160" height="158" as="geometry" />
        </mxCell>
        <mxCell id="k31ojTV0Nv7G4YqroZqt-15" value="&lt;div&gt;+ title : String&lt;/div&gt;&lt;div&gt;+ date : Date&lt;/div&gt;" style="text;strokeColor=none;fillColor=none;align=left;verticalAlign=top;spacingLeft=4;spacingRight=4;overflow=hidden;rotatable=0;points=[[0,0.5],[1,0.5]];portConstraint=eastwest;whiteSpace=wrap;html=1;" vertex="1" parent="k31ojTV0Nv7G4YqroZqt-14">
          <mxGeometry y="26" width="160" height="124" as="geometry" />
        </mxCell>
        <mxCell id="k31ojTV0Nv7G4YqroZqt-16" value="" style="line;strokeWidth=1;fillColor=none;align=left;verticalAlign=middle;spacingTop=-1;spacingLeft=3;spacingRight=3;rotatable=0;labelPosition=right;points=[];portConstraint=eastwest;strokeColor=inherit;" vertex="1" parent="k31ojTV0Nv7G4YqroZqt-14">
          <mxGeometry y="150" width="160" height="8" as="geometry" />
        </mxCell>
        <mxCell id="k31ojTV0Nv7G4YqroZqt-17" value="File" style="swimlane;fontStyle=1;align=center;verticalAlign=top;childLayout=stackLayout;horizontal=1;startSize=26;horizontalStack=0;resizeParent=1;resizeParentMax=0;resizeLast=0;collapsible=1;marginBottom=0;whiteSpace=wrap;html=1;fillColor=none;" vertex="1" parent="1">
          <mxGeometry x="360" y="301" width="160" height="158" as="geometry" />
        </mxCell>
        <mxCell id="k31ojTV0Nv7G4YqroZqt-18" value="&lt;div&gt;+ name: String&lt;/div&gt;" style="text;strokeColor=none;fillColor=none;align=left;verticalAlign=top;spacingLeft=4;spacingRight=4;overflow=hidden;rotatable=0;points=[[0,0.5],[1,0.5]];portConstraint=eastwest;whiteSpace=wrap;html=1;" vertex="1" parent="k31ojTV0Nv7G4YqroZqt-17">
          <mxGeometry y="26" width="160" height="124" as="geometry" />
        </mxCell>
        <mxCell id="k31ojTV0Nv7G4YqroZqt-19" value="" style="line;strokeWidth=1;fillColor=none;align=left;verticalAlign=middle;spacingTop=-1;spacingLeft=3;spacingRight=3;rotatable=0;labelPosition=right;points=[];portConstraint=eastwest;strokeColor=inherit;" vertex="1" parent="k31ojTV0Nv7G4YqroZqt-17">
          <mxGeometry y="150" width="160" height="8" as="geometry" />
        </mxCell>
        <mxCell id="k31ojTV0Nv7G4YqroZqt-20" value="" style="endArrow=diamondThin;endFill=1;endSize=24;html=1;rounded=0;entryX=1;entryY=0.5;entryDx=0;entryDy=0;" edge="1" parent="1" source="k31ojTV0Nv7G4YqroZqt-18" target="k31ojTV0Nv7G4YqroZqt-15">
          <mxGeometry width="160" relative="1" as="geometry">
            <mxPoint x="170" y="241" as="sourcePoint" />
            <mxPoint x="330" y="241" as="targetPoint" />
          </mxGeometry>
        </mxCell>
        <mxCell id="k31ojTV0Nv7G4YqroZqt-21" value="&lt;span style=&quot;font-weight: normal;&quot;&gt;*&lt;/span&gt;" style="text;align=center;fontStyle=1;verticalAlign=middle;spacingLeft=3;spacingRight=3;strokeColor=none;rotatable=0;points=[[0,0.5],[1,0.5]];portConstraint=eastwest;html=1;" vertex="1" parent="1">
          <mxGeometry x="330" y="381" width="30" height="7" as="geometry" />
        </mxCell>
        <mxCell id="k31ojTV0Nv7G4YqroZqt-22" value="" style="endArrow=none;html=1;edgeStyle=orthogonalEdgeStyle;rounded=0;entryX=-0.001;entryY=0.395;entryDx=0;entryDy=0;entryPerimeter=0;labelBackgroundColor=none;fontColor=default;" edge="1" parent="1" source="k31ojTV0Nv7G4YqroZqt-9" target="k31ojTV0Nv7G4YqroZqt-12">
          <mxGeometry relative="1" as="geometry">
            <mxPoint x="170" y="211" as="sourcePoint" />
            <mxPoint x="330" y="211" as="targetPoint" />
          </mxGeometry>
        </mxCell>
        <mxCell id="k31ojTV0Nv7G4YqroZqt-23" value="*" style="edgeLabel;resizable=0;html=1;align=left;verticalAlign=bottom;labelBackgroundColor=none;" connectable="0" vertex="1" parent="k31ojTV0Nv7G4YqroZqt-22">
          <mxGeometry x="-1" relative="1" as="geometry">
            <mxPoint x="1" as="offset" />
          </mxGeometry>
        </mxCell>
        <mxCell id="k31ojTV0Nv7G4YqroZqt-24" value="*" style="edgeLabel;resizable=0;html=1;align=right;verticalAlign=bottom;labelBackgroundColor=none;" connectable="0" vertex="1" parent="k31ojTV0Nv7G4YqroZqt-22">
          <mxGeometry x="1" relative="1" as="geometry">
            <mxPoint x="-1" as="offset" />
          </mxGeometry>
        </mxCell>
        <mxCell id="k31ojTV0Nv7G4YqroZqt-25" value="" style="endArrow=none;html=1;edgeStyle=orthogonalEdgeStyle;rounded=0;entryX=0.5;entryY=1;entryDx=0;entryDy=0;exitX=0.5;exitY=0;exitDx=0;exitDy=0;" edge="1" parent="1" source="k31ojTV0Nv7G4YqroZqt-14" target="k31ojTV0Nv7G4YqroZqt-11">
          <mxGeometry relative="1" as="geometry">
            <mxPoint x="50" y="199" as="sourcePoint" />
            <mxPoint x="130" y="186" as="targetPoint" />
          </mxGeometry>
        </mxCell>
        <mxCell id="k31ojTV0Nv7G4YqroZqt-26" value="*" style="edgeLabel;resizable=0;html=1;align=left;verticalAlign=bottom;" connectable="0" vertex="1" parent="k31ojTV0Nv7G4YqroZqt-25">
          <mxGeometry x="-1" relative="1" as="geometry">
            <mxPoint x="1" y="-20" as="offset" />
          </mxGeometry>
        </mxCell>
        <mxCell id="k31ojTV0Nv7G4YqroZqt-27" value="*" style="edgeLabel;resizable=0;html=1;align=right;verticalAlign=bottom;labelBackgroundColor=none;" connectable="0" vertex="1" parent="k31ojTV0Nv7G4YqroZqt-25">
          <mxGeometry x="1" relative="1" as="geometry">
            <mxPoint x="-4" y="20" as="offset" />
          </mxGeometry>
        </mxCell>
        <mxCell id="k31ojTV0Nv7G4YqroZqt-30" value="The user to library relation defines the functional authorisations for the user.&amp;nbsp;" style="text;html=1;align=left;verticalAlign=top;whiteSpace=wrap;rounded=0;" vertex="1" parent="1">
          <mxGeometry x="570" y="40" width="150" height="80" as="geometry" />
        </mxCell>
        <mxCell id="k31ojTV0Nv7G4YqroZqt-31" value="The library to collection relation defines the access to the files.&amp;nbsp;&lt;div&gt;&lt;br&gt;&lt;/div&gt;&lt;div&gt;Think of collection as a specific bundle of files.&amp;nbsp;&lt;/div&gt;" style="text;html=1;align=left;verticalAlign=top;whiteSpace=wrap;rounded=0;" vertex="1" parent="1">
          <mxGeometry x="570" y="281" width="150" height="119" as="geometry" />
        </mxCell>
      </root>
    </mxGraphModel>
  </diagram>
</mxfile>
